<svg width="660" height="512" viewBox="0 0 660 512" fill="none" xmlns="http://www.w3.org/2000/svg">
<path d="M660 189.586H382.578V198.154H660V189.586Z" fill="#E6E6E6"/>
<path d="M475.792 117.925H405.511V191.923H475.792V117.925Z" fill="#E6E6E6"/>
<path d="M461.736 132.724H419.567V177.123H461.736V132.724Z" fill="#CCCCCC"/>
<path d="M580.842 117.925H563.087V191.923H580.842V117.925Z" fill="#E6E6E6"/>
<path d="M580.842 129.609H563.087V138.177H580.842V129.609Z" fill="#CCCCCC"/>
<path d="M580.842 166.997H563.087V175.565H580.842V166.997Z" fill="#CCCCCC"/>
<path d="M553.47 117.925H535.715V191.923H553.47V117.925Z" fill="#E6E6E6"/>
<path d="M553.47 129.609H535.715V138.177H553.47V129.609Z" fill="#CCCCCC"/>
<path d="M553.47 166.997H535.715V175.565H553.47V166.997Z" fill="#CCCCCC"/>
<path d="M596.14 117.619L580.229 125.913L611.411 192.229L627.323 183.935L596.14 117.619Z" fill="#E6E6E6"/>
<path d="M601.064 128.09L585.152 136.384L588.763 144.063L604.674 135.768L601.064 128.09Z" fill="#CCCCCC"/>
<path d="M616.819 161.597L600.908 169.891L604.518 177.57L620.43 169.275L616.819 161.597Z" fill="#CCCCCC"/>
<path d="M431.774 147.628L440.715 163.933L449.656 180.239H431.774H413.892L422.833 163.933L431.774 147.628Z" fill="#E6E6E6"/>
<path d="M447.309 150.743L456.25 167.049L465.192 183.355H447.309H429.427L438.368 167.049L447.309 150.743Z" fill="#E6E6E6"/>
<path d="M453.598 145.966C456.458 145.966 458.776 143.525 458.776 140.514C458.776 137.502 456.458 135.061 453.598 135.061C450.738 135.061 448.419 137.502 448.419 140.514C448.419 143.525 450.738 145.966 453.598 145.966Z" fill="#E6E6E6"/>
<path d="M382.578 80.5359L660 80.5359V71.9676L382.578 71.9676V80.5359Z" fill="#E6E6E6"/>
<path d="M566.786 74.3044L637.066 74.3044V0.305954L566.786 0.305954V74.3044Z" fill="#E6E6E6"/>
<path d="M580.842 59.5047L623.01 59.5047V15.1057L580.842 15.1057V59.5047Z" fill="#CCCCCC"/>
<path d="M461.735 74.3044H479.49V0.305954H461.735V74.3044Z" fill="#E6E6E6"/>
<path d="M461.735 20.5582L479.49 20.5582V11.9899L461.735 11.9899V20.5582Z" fill="#CCCCCC"/>
<path d="M461.735 57.9469H479.49V49.3786H461.735V57.9469Z" fill="#CCCCCC"/>
<path d="M489.108 74.3044H506.863V0.305954H489.108V74.3044Z" fill="#E6E6E6"/>
<path d="M489.108 20.5582L506.863 20.5582V11.9899L489.108 11.9899V20.5582Z" fill="#CCCCCC"/>
<path d="M489.108 57.9469H506.863V49.3786H489.108V57.9469Z" fill="#CCCCCC"/>
<path d="M415.255 66.3159L431.166 74.6104L462.349 8.2945L446.437 3.65272e-06L415.255 66.3159Z" fill="#E6E6E6"/>
<path d="M437.903 18.1496L453.815 26.4441L457.426 18.7654L441.514 10.4709L437.903 18.1496Z" fill="#CCCCCC"/>
<path d="M422.148 51.6566L438.059 59.9511L441.67 52.2724L425.758 43.978L422.148 51.6566Z" fill="#CCCCCC"/>
<path d="M610.804 30.0086L601.863 46.3144L592.922 62.6201H610.804H628.686L619.745 46.3144L610.804 30.0086Z" fill="#E6E6E6"/>
<path d="M595.268 33.1244L586.327 49.4301L577.386 65.7359H595.268H613.151L604.21 49.4301L595.268 33.1244Z" fill="#E6E6E6"/>
<path d="M588.98 28.3475C591.84 28.3475 594.158 25.9063 594.158 22.895C594.158 19.8836 591.84 17.4424 588.98 17.4424C586.12 17.4424 583.801 19.8836 583.801 22.895C583.801 25.9063 586.12 28.3475 588.98 28.3475Z" fill="#E6E6E6"/>
<path d="M382.578 315.773L660 315.773V307.205L382.578 307.205V315.773Z" fill="#E6E6E6"/>
<path d="M566.786 309.542H637.066V235.543H566.786V309.542Z" fill="#E6E6E6"/>
<path d="M580.842 294.742H623.01V250.343H580.842V294.742Z" fill="#CCCCCC"/>
<path d="M461.735 309.542H479.49V235.543H461.735V309.542Z" fill="#E6E6E6"/>
<path d="M461.735 255.795H479.49V247.227H461.735V255.795Z" fill="#CCCCCC"/>
<path d="M461.735 293.184H479.49V284.616H461.735V293.184Z" fill="#CCCCCC"/>
<path d="M489.108 309.542H506.863V235.543H489.108V309.542Z" fill="#E6E6E6"/>
<path d="M489.108 255.795H506.863V247.227H489.108V255.795Z" fill="#CCCCCC"/>
<path d="M489.108 293.184H506.863V284.616H489.108V293.184Z" fill="#CCCCCC"/>
<path d="M415.255 301.553L431.166 309.848L462.349 243.532L446.437 235.237L415.255 301.553Z" fill="#E6E6E6"/>
<path d="M437.903 253.387L453.815 261.681L457.426 254.003L441.514 245.708L437.903 253.387Z" fill="#CCCCCC"/>
<path d="M422.148 286.894L438.059 295.188L441.67 287.51L425.758 279.215L422.148 286.894Z" fill="#CCCCCC"/>
<path d="M610.804 265.246L601.863 281.551L592.922 297.858H610.804H628.686L619.745 281.551L610.804 265.246Z" fill="#E6E6E6"/>
<path d="M595.268 268.361L586.327 284.667L577.386 300.974H595.268H613.151L604.21 284.667L595.268 268.361Z" fill="#E6E6E6"/>
<path d="M588.98 263.585C591.84 263.585 594.158 261.143 594.158 258.132C594.158 255.121 591.84 252.68 588.98 252.68C586.12 252.68 583.801 255.121 583.801 258.132C583.801 261.143 586.12 263.585 588.98 263.585Z" fill="#E6E6E6"/>
<path d="M326.804 512C507.292 512 653.607 501.058 653.607 487.562C653.607 474.065 507.292 463.123 326.804 463.123C146.315 463.123 0 474.065 0 487.562C0 501.058 146.315 512 326.804 512Z" fill="#E6E6E6"/>
<path d="M582.119 501.247C528.831 491.261 470.559 492.921 409.433 501.247C437.293 476.483 461.338 451.719 433.478 426.954C487.823 438.759 495.435 437.564 555.888 426.954C541.867 451.719 568.097 476.483 582.119 501.247Z" fill="#339AF0"/>
<path opacity="0.2" d="M582.119 501.247C528.831 491.261 470.559 492.921 409.433 501.247C437.293 476.483 461.338 451.719 433.478 426.954C487.823 438.759 495.435 437.564 555.888 426.954C541.867 451.719 568.097 476.483 582.119 501.247Z" fill="black"/>
<path d="M569.121 490.682C523.855 482.711 474.355 484.036 422.431 490.682C446.097 470.914 466.522 451.147 442.856 431.38C489.02 440.802 495.486 439.849 546.839 431.38C534.928 451.147 557.21 470.914 569.121 490.682Z" fill="#339AF0"/>
<path d="M551.88 458.832C565.201 458.832 575.999 447.462 575.999 433.437C575.999 419.412 565.201 408.042 551.88 408.042C538.56 408.042 527.761 419.412 527.761 433.437C527.761 447.462 538.56 458.832 551.88 458.832Z" fill="#2F2E41"/>
<path d="M442.392 403.982L459.103 406.915L467.459 432.33L443.321 447.972L415.468 403.982H441.463H442.392Z" fill="#A0616A"/>
<path d="M489.741 443.084C511.277 443.084 528.735 424.702 528.735 402.027C528.735 379.352 511.277 360.97 489.741 360.97C468.206 360.97 450.748 379.352 450.748 402.027C450.748 424.702 468.206 443.084 489.741 443.084Z" fill="#A0616A"/>
<path d="M274.348 252.464C274.348 252.464 179.649 263.217 162.938 261.262C146.226 259.307 138.799 257.351 138.799 257.351C138.799 257.351 127.658 272.992 133.228 279.835C136.348 283.778 140.123 287.09 144.369 289.61C144.369 289.61 154.582 286.678 162.009 289.61C169.437 292.543 244.639 305.251 257.637 293.52C270.634 281.79 274.348 252.464 274.348 252.464Z" fill="#2F2E41"/>
<path d="M280.847 470.455C280.847 470.455 218.643 451.881 207.502 369.768V361.948C207.502 361.948 195.194 384.682 190.79 389.319C185.684 394.695 167.58 443.084 168.508 447.971C169.437 452.859 168.508 454.814 168.508 454.814L141.584 451.881V443.084C141.584 443.084 155.974 397.628 156.903 386.875C157.831 376.122 192.647 301.341 192.647 301.341C192.647 301.341 205.645 272.992 227.927 301.341C250.209 329.689 252.066 349.24 252.066 349.24L280.847 407.892L280.847 470.455Z" fill="#2F2E41"/>
<path d="M141.584 254.419L111.875 243.666C111.875 243.666 84.022 222.16 90.521 243.666C97.0199 265.172 126.729 312.094 135.085 307.206C143.441 302.318 153.49 290.186 151.251 288.432C149.011 286.678 134.157 273.97 141.584 254.419Z" fill="#2F2E41"/>
<path d="M145.175 437.312L121.192 449.645C121.192 449.645 92.1897 454.343 108.364 463.151C124.539 471.96 169.158 481.356 171.389 473.135C173.62 464.913 172.735 451.268 170.389 451.631C168.043 451.994 151.868 453.755 145.175 437.312Z" fill="#2F2E41"/>
<path d="M268.777 405.937C268.777 405.937 256.708 460.679 277.133 472.41C297.558 484.14 440.535 486.095 451.676 464.589C462.817 443.084 457.247 443.084 457.247 443.084L427.537 407.892L451.676 405.937C451.676 405.937 451.676 398.117 443.32 397.139C434.965 396.162 408.969 386.386 386.687 393.229C364.405 400.072 351.407 379.544 351.407 379.544L268.777 405.937Z" fill="#F03E3E"/>
<path d="M252.995 234.868L237.211 325.779L345.837 312.094L365.333 229.98L252.995 234.868Z" fill="#3F3D56"/>
<path d="M256.244 238.29L243.246 319.425L342.123 307.206L361.155 233.402L256.244 238.29Z" fill="white"/>
<path d="M240.925 326.757L237.211 325.779L235.354 329.689L265.064 416.69L267.858 415.565L268.777 409.848L240.925 326.757Z" fill="#B3B3B3"/>
<path d="M237.211 324.801L266.921 415.713L379.259 398.117L345.837 312.094L237.211 324.801Z" fill="#D0CDE1"/>
<path d="M252.066 321.869V326.757L334.695 316.982L333.767 312.094L252.066 321.869Z" fill="#3F3D56"/>
<path d="M253.923 331.644L266.921 369.768L351.407 359.016L336.552 322.847L253.923 331.644Z" fill="#3F3D56"/>
<path d="M359.763 385.409L356.977 377.589C356.977 377.589 335.624 338.487 324.483 346.307C313.342 354.128 347.693 392.252 347.693 392.252H358.834L359.763 385.409Z" fill="#A0616A"/>
<path d="M289.203 391.274L286.418 379.544C286.418 379.544 278.99 343.375 291.988 345.33C304.986 347.285 308.7 381.499 308.7 381.499L307.771 389.319L289.203 391.274Z" fill="#A0616A"/>
<path d="M311.485 386.386C311.485 386.386 287.346 382.476 286.417 388.341C285.489 394.207 280.847 482.185 304.057 485.118C327.268 488.05 442.392 500.758 430.323 470.455C418.253 440.151 399.685 444.061 399.685 444.061L320.769 452.859L311.485 386.386Z" fill="#F03E3E"/>
<path d="M384.365 397.628L359.763 379.544L343.515 392.74L363.941 416.201L384.365 397.628Z" fill="#F03E3E"/>
<path opacity="0.2" d="M318.448 415.224L322.161 452.371L386.223 448.46L330.517 447.483L318.448 415.224Z" fill="black"/>
<path d="M508.99 458.364C534.627 458.364 555.411 436.481 555.411 409.487C555.411 382.493 534.627 360.61 508.99 360.61C483.352 360.61 462.569 382.493 462.569 409.487C462.569 436.481 483.352 458.364 508.99 458.364Z" fill="#2F2E41"/>
<path d="M270.17 266.638L327.732 264.528L333.303 242.2L273.884 244.088L270.17 266.638Z" fill="#339AF0"/>
<path d="M255.316 279.346L342.587 276.413L343.515 272.503L256.244 275.738L255.316 279.346Z" fill="#E6E6E6"/>
<path d="M253.459 289.122L340.73 286.189L341.659 282.278L254.387 285.514L253.459 289.122Z" fill="#E6E6E6"/>
<path d="M252.53 296.941L339.801 294.009L340.73 290.099L253.459 293.333L252.53 296.941Z" fill="#E6E6E6"/>
</svg>
